<?xml version="1.0" encoding="utf-8"?>
<!-- Generator: Adobe Illustrator 25.0.0, SVG Export Plug-In . SVG Version: 6.00 Build 0)  -->
<svg version="1.1" id="Layer_1" xmlns="http://www.w3.org/2000/svg" xmlns:xlink="http://www.w3.org/1999/xlink" x="0px" y="0px"
	 viewBox="0 0 2117 752" style="enable-background:new 0 0 2117 752;" xml:space="preserve">
<style type="text/css">
	.st0{opacity:0.14;fill:#FDC1C5;}
</style>
<path class="st0" d="M-154.9,528.2c-13.7-4.4-15-1.7-15-12.2c0-10.4,0-8.1,9.2-10l10.9-3.6c0,0,41.5-203.7,80.7-346.5
	c0-1.7,8.4-34.3,7.9-34.9c-3.4,3.3-6.5,7-9.2,10.9c-39.7,58-51,21.4-51,19c0-10,22.6-45.8,32.9-45.8s6.9,5.3,20.4-14.8
	c14.5-20.3,26-42.4,34.3-65.9c2-7.9,5.3-15.4,9.7-22.1c5.3-3.6,12.6-2.3,16.2,3c1.2,1.9,2,3.9,2,6.1c0,7.3-66.4,283-66.4,305.5
	C-38,244.2,2.3,174.7,48.8,109.1c24.8-32.7,53-62.7,84.5-89.2C154.8,4.5,178.6-7.3,204-15c27-4.7,54.7-3.4,81.2,3.7
	c26.2,11.5,47.2,32.4,58.8,58.6c4.5,13.6,6.2,28.1,4.8,42.2c-2,96.9-96.5,197.3-172.9,258.1C86,414.1-10.8,470.7-112.7,516.5
	c-46.3,229.6-23.7,262.6-48.2,262.6c-16.1,0-19.6-53.8-19.6-69.8C-175.4,648.5-166.9,588-154.9,528.2z M-106.6,483.5
	c0,8.1,369.5-182,421-366.6C333.2,48.5,291.8,5.1,238,5.1c-44.1,0-95.4,17.8-158.4,95.2C-2.3,202.4-106,420.7-106,483.5H-106.6z"/>
<path class="st0" d="M255.1,406c8.7,7.2,10,7.9,14,5.3c4.1-2.5,9.2-4.4,14.8,1.2s3.1,13.6,3.1,29.3c0,15.7,3.6,22.6,10.9,27
	c22.6,12.8,67.2-37.4,67.2-16.5c0,12.2-35.8,34.9-47.1,39.7c-19.2,11.7-44.3,5.5-56-13.7c-3.1-5.1-5-10.9-5.6-16.8
	c0-3.6,0-6.1-1.2-6.1c-5.5,4.8-10.1,10.4-14,16.5c-12.8,19.6-29.6,36.3-49.4,48.9c-10,3.1-9.2,3.1-17.8,0
	C114.6,493.7,197.8,352.9,255.1,406z M248.4,427.8c-2.8-1.4-6.1-2-9.2-1.7c-10,0-18.4,8.4-28.2,27.4c-3.6,6.1-6.4,12.8-8.4,19.6
	C202.6,478.6,248.4,430.9,248.4,427.8z"/>
<path class="st0" d="M398.2,450.1c-1.2,12.9-4.4,42.7,4.4,42.7s53.8-56.3,65.2-82.5c6.1-13.6,16.1-28.1,25.4-17.6
	c2.3,2.3,3.1,4.8,3.1,15.7c-1.2,24-1.2,48,0,72C507,510.3,551,450,561.4,450c2.2,0.8,3.7,2.6,4.1,4.8
	c-13.6,20.3-29.8,38.5-48.2,54.6c-22.6,13.6-53.8-1.2-57.5-38.5v-12.2c-20.6,31.6-43.8,74.3-73.9,62.8
	c-49.4-19.6-28.8-119.9,0-119.9C398.7,400.9,401.8,412.5,398.2,450.1z"/>
<path class="st0" d="M560,391.2c13.6-87.3,59.9-264.5,73.3-280.1c7.9-9.2,20.6-5.3,25.4,6.9c-0.9,10.6-3.3,21-6.5,31
	c-25.4,92.4-74,295.4-74,391.1c-1.7,18.5,0,37.3,5.1,55.2c3.6,3.6,5.6,6.1,5.6,8.4c-1.6,4.2-5.5,7.2-10,7.3
	C542.2,611.1,554.5,426.6,560,391.2z"/>
<path class="st0" d="M859.9,459c6.1-25.4,27.4-110,25.4-111c-2-1.1-4.8,2.3-6.1,3.1c-3.3,3.3-7.6,5.5-12.2,6.1
	c-7.9,0-20.1-15.3-14.5-25.4c5.6-10.1,44.1-28.8,46.3-32.3c2.2-3.4,31.8-118.6,45.8-169.3c-8.4,1.2-9.2,1.7-11.4,1.7
	c-12.9,0-14.2-12.8-2-28.1c16.7-23.5,30.1-49.3,39.7-76.4c5.6-15.7,11.7-23.2,19-23.2c25.4,0,20.1,36.6-19,209.5
	c0,3.1,5.1-4.1,12.2-16.4C1096.5,17.3,1304.2-116,1387.9-78c17.3,4.8,28.8,21,28.1,39c0,39.3-57.2,86.8-316.9,260.9
	c-143.1,96-38.5,3.1,221.8,3.1c36.3-0.5,72.6,1.4,108.6,5.6C1570.1,249.5,1745,307,1745,448.1c0,189.4-387,422.9-667.2,422.9
	c-68.9,0.9-137-14.7-198.6-45.8c-3.1,0-25.4-12.8-25.4-9.7c-3.4,7-10,11.8-17.6,13.6c-13.6,0-19.6-9.4-22.6-34.3
	c-3.1-30.1-22.1-24-48.9-78.1c-12.3-21-18.1-45.4-16.5-69.8C748.1,567.2,800.2,510.4,859.9,459z M786.9,632.6
	c0.5,29,10.8,57,29.3,79.5c6.9-66.9,17.5-133.4,31.8-199C847.7,506.1,786.9,567.9,786.9,632.6z M1327.6,250.8
	c-130.1-1.1-259.2,22.4-380.6,69.5c-4.4,19.6-22.6,95.4-22.6,99s25.4-10.4,25.4-10.4c50.3-23.7,105.2-36.2,160.8-36.6
	c30.5,0,44.6,17,44.6,33.7c-1.6,15.3-11.4,28.4-25.4,34.3c-3.1,0-8.7-6.1-8.7-8.7c0-2.6,12.9-15.3,12.9-24c0-8.7-19-15.3-31.8-15.3
	c-65.5,0-185,51-190.2,71.1c0,3.1-55,266.2-55,287.7c19.2,14.7,40.1,26.8,62.3,36.2c34.6,13.4,70.8,22.4,107.7,27
	c44.4,1.4,88.8,0,133.1-4.4c233.9-37.9,444.2-174.9,514-274.5c133.9-189.4-117.1-285.1-346.9-285.1L1327.6,250.8z M983.6,250.8
	c0,0,402.9-249.2,402.9-293.2c0-22.6-52.4-17-73.9-10.9C1223.5-26,1114.7,58.7,1039,159.1c-22.3,27.6-41,58-55.5,90.4L983.6,250.8z"
	/>
<path class="st0" d="M1856,393.1c7.9,6.1,7.3-4.8,17.6-4.8c4.7,0.5,9,3.1,11.2,7.3c3.6,10.4,5.3,69.5,13.2,74.7
	c32.6,20.1,132.6-193.7,171.1-403.5c4.4-25.4,7.3-31.6,16.1-31.6c25.4,0,7.3,9.7-48.9,312c-40.5,213.4-53.8,259.2-45.4,269.6
	c5.6,6.1,0,25.4-10.9,25.4c-3.1,0.2-6.1-1.2-7.9-3.7c-17.8-19.3,25.4-250.5,25.4-250.9c-5.5,6.2-10,13.4-13.6,20.9
	c-20.1,38.5-58.6,108.6-98.2,93.4c-22.6-10-25.4-33-31.3-61.1c-38.5,56.3-60.3,89.2-82.9,69.5C1741.4,486.4,1814.8,364.2,1856,393.1
	z M1798.5,479.3l13.6-14.8c13.2-13.4,24.5-29,33-45.8c0-6.5-20.9,7.3-37.4,41.5L1798.5,479.3z"/>
<path class="st0" d="M1834.3,242.8c0-16.1,8.7-11.2,30.5,0h232.2c15.3-39.7,18.4-51,27.4-51c18.4,0,15.3,15.7,12.9,51
	c87.8-7.3,180.8-12.2,260.6-12.2c170,0,160.8,48.3,151,48.3c-12.3-1.9-24.3-5.3-35.8-10c-41.3-14.8-85.1-21.5-129.1-19.6
	c-76.4,0-248.8,10-250.5,11.7c-1.7,1.7-88.5,383.1-88.5,418c0.9,9,0.9,18.1,0,27c-3.1,5.3-14.2,4.8-19.6-1.2
	c-8.4-14.2-12.5-30.5-11.7-47.1c0-74.7,60.6-324.3,78.4-395.9c-78.9,5.3-162.7,7.9-186.6,7.9c-40.2,0-51-2.5-62.8-12.2
	C1836.2,252.5,1834.3,250.1,1834.3,242.8z"/>
<path class="st0" d="M2214,406c8.4,7.2,9.7,7.9,14,5.3c4.4-2.5,9.2-4.4,14.5,1.2c5.3,5.6,3.1,13.6,3.1,29.3
	c-1.6,10.4,2.8,20.7,11.2,27c22.4,12.8,67.2-37.4,67.2-16.5c0,12.2-36.2,34.9-47.1,39.7c-19.3,11.7-44.6,5.5-56.3-14
	c-3.1-5-5-10.8-5.6-16.5c0-3.6,0-6.1,0-6.1c-5.5,4.8-10.3,10.4-14.2,16.5c-12.8,19.6-29.6,36.3-49.4,48.9c-10,3.1-9.2,3.1-17.8,0
	C2073.1,493.7,2156.5,352.9,2214,406z M2207.1,427.8c-2.8-1.6-5.9-2.2-9.2-1.7c-9.7,0-18.4,8.4-28.1,27.4
	c-3.7,6.1-6.7,12.6-8.7,19.6C2161.5,478.6,2207.1,430.9,2207.1,427.8z"/>
</svg>
