<svg id="Layer_1" data-name="Layer 1" xmlns="http://www.w3.org/2000/svg" width="37.89mm" height="13.24mm" viewBox="0 0 107.41 37.53"><defs><style>.cls-1{fill:#1d1d1b;}</style></defs><path class="cls-1" d="M1,24.07C.46,23.9.41,24,.41,23.59s0-.32.36-.39l.43-.14s1.63-8,3.17-13.61c0-.07.33-1.35.31-1.37a2.79,2.79,0,0,0-.36.43c-1.56,2.28-2,.84-2,.75,0-.39.89-1.8,1.29-1.8s.27.21.8-.58A10.54,10.54,0,0,0,5.76,4.29a2.85,2.85,0,0,1,.38-.87.46.46,0,0,1,.72.36c0,.29-2.61,11.12-2.61,12A53.22,53.22,0,0,1,9,7.62a21.37,21.37,0,0,1,3.32-3.5,9.34,9.34,0,0,1,2.78-1.37,7.35,7.35,0,0,1,3.19.15,4.51,4.51,0,0,1,2.31,2.3,4,4,0,0,1,.19,1.66C20.71,10.67,17,14.61,14,17A61.66,61.66,0,0,1,2.66,23.63c-1.82,9-.93,10.3-1.89,10.3-.63,0-.77-2.11-.77-2.74A63.47,63.47,0,0,1,1,24.07Zm1.9-1.76c0,.32,14.52-7.15,16.54-14.4.74-2.69-.89-4.39-3-4.39-1.73,0-3.75.7-6.22,3.74C7,11.27,2.93,19.84,2.93,22.31Z"/><path class="cls-1" d="M17.11,19.27c.34.28.39.31.55.21s.36-.17.58.05.12.53.12,1.15.14.89.43,1.06c.89.5,2.64-1.47,2.64-.65,0,.48-1.41,1.37-1.85,1.56a1.6,1.6,0,0,1-2.42-1.2c0-.14,0-.24-.05-.24a2.93,2.93,0,0,0-.55.65,6.36,6.36,0,0,1-1.94,1.92c-.39.12-.36.12-.7,0C11.59,22.72,14.86,17.18,17.11,19.27Zm-.26.86a.64.64,0,0,0-.36-.07c-.39,0-.72.33-1.11,1.08a3.28,3.28,0,0,0-.33.77C15.05,22.12,16.85,20.25,16.85,20.13Z"/><path class="cls-1" d="M22.73,21c-.05.51-.17,1.68.17,1.68s2.11-2.21,2.56-3.24c.24-.53.63-1.1,1-.69.09.09.12.19.12.62a26.58,26.58,0,0,0,0,2.83C27,23.37,28.73,21,29.14,21a.25.25,0,0,1,.16.19,10.87,10.87,0,0,1-1.89,2.14c-.89.53-2.11-.05-2.26-1.51l0-.48c-.81,1.24-1.72,2.92-2.9,2.47-1.94-.77-1.13-4.71,0-4.71C22.75,19.07,22.87,19.53,22.73,21Z"/><path class="cls-1" d="M29.09,18.69c.53-3.43,2.35-10.39,2.88-11,.31-.36.81-.21,1,.27a5.42,5.42,0,0,1-.26,1.22c-1,3.63-2.91,11.6-2.91,15.36A6,6,0,0,0,30,26.71c.14.14.22.24.22.33a.44.44,0,0,1-.39.29C28.39,27.33,28.87,20.08,29.09,18.69Z"/><path class="cls-1" d="M40.87,21.35c.24-1,1.08-4.32,1-4.36s-.19.09-.24.12a.85.85,0,0,1-.48.24c-.31,0-.79-.6-.57-1s1.73-1.13,1.82-1.27,1.25-4.66,1.8-6.65c-.33.05-.36.07-.45.07-.51,0-.56-.5-.08-1.1a12.26,12.26,0,0,0,1.56-3c.22-.62.46-.91.75-.91,1,0,.79,1.44-.75,8.23,0,.12.2-.16.48-.64C50.16,4,58.32-1.23,61.61.26a1.51,1.51,0,0,1,1.1,1.53c0,1.54-2.25,3.41-12.45,10.25-5.62,3.77-1.51.12,8.71.12a32.66,32.66,0,0,1,4.27.22c5.52.74,12.39,3,12.39,8.54,0,7.44-15.2,16.61-26.21,16.61a16.74,16.74,0,0,1-7.8-1.8c-.12,0-1-.5-1-.38a1,1,0,0,1-.69.53c-.53,0-.77-.37-.89-1.35-.12-1.18-.87-.94-1.92-3.07a4.87,4.87,0,0,1-.65-2.74C36.48,25.6,38.52,23.37,40.87,21.35ZM38,28.17a5,5,0,0,0,1.15,3.12,70.78,70.78,0,0,1,1.25-7.82C40.39,23.2,38,25.63,38,28.17Zm21.24-15a40.32,40.32,0,0,0-14.95,2.73c-.17.77-.89,3.75-.89,3.89s1-.41,1-.41a15.24,15.24,0,0,1,6.32-1.44c1.2,0,1.75.67,1.75,1.32a1.65,1.65,0,0,1-1,1.35c-.12,0-.34-.24-.34-.34s.51-.6.51-.94-.75-.6-1.25-.6c-2.57,0-7.27,2-7.47,2.79,0,.12-2.16,10.46-2.16,11.3a11,11,0,0,0,2.45,1.42,17.63,17.63,0,0,0,4.23,1.06,41,41,0,0,0,5.23-.17c9.19-1.49,17.45-6.87,20.19-10.78C78.12,16.91,68.26,13.15,59.23,13.15Zm-13.51,0S61.56,3.38,61.56,1.65c0-.89-2.06-.67-2.9-.43C55.15,2.3,50.88,5.63,47.9,9.57A16.11,16.11,0,0,0,45.72,13.12Z"/><path class="cls-1" d="M80,18.76c.31.24.29-.19.69-.19a.55.55,0,0,1,.44.29c.14.41.21,2.73.52,2.93,1.28.79,5.21-7.61,6.72-15.85.17-1,.29-1.24.63-1.24,1,0,.29.38-1.92,12.26-1.59,8.38-2.11,10.18-1.78,10.59.22.24,0,1-.43,1a.37.37,0,0,1-.31-.15c-.7-.76,1-9.84,1-9.86a3.59,3.59,0,0,0-.53.82c-.79,1.51-2.3,4.27-3.86,3.67-.89-.39-1-1.3-1.23-2.4-1.51,2.21-2.37,3.5-3.26,2.73C75.5,22.43,78.38,17.63,80,18.76Zm-2.26,3.39.53-.58a7.24,7.24,0,0,0,1.3-1.8c0-.26-.82.29-1.47,1.63Z"/><path class="cls-1" d="M79.15,12.86c0-.63.34-.44,1.2,0h9.12c.6-1.56.72-2,1.08-2,.72,0,.6.62.51,2,3.45-.29,7.1-.48,10.24-.48,6.68,0,6.32,1.9,5.93,1.9a6.28,6.28,0,0,1-1.41-.39,13.26,13.26,0,0,0-5.07-.77c-3,0-9.77.39-9.84.46S87.43,28.63,87.43,30a5.37,5.37,0,0,1,0,1.06c-.12.21-.56.19-.77-.05a3.33,3.33,0,0,1-.46-1.85c0-2.93,2.38-12.74,3.08-15.55-3.1.21-6.39.31-7.33.31-1.58,0-2-.1-2.47-.48C79.22,13.24,79.15,13.15,79.15,12.86Z"/><path class="cls-1" d="M94.06,19.27c.33.28.38.31.55.21s.36-.17.57.05.12.53.12,1.15a1.12,1.12,0,0,0,.44,1.06c.88.5,2.64-1.47,2.64-.65,0,.48-1.42,1.37-1.85,1.56a1.61,1.61,0,0,1-2.43-1.2c0-.14,0-.24,0-.24a3.13,3.13,0,0,0-.56.65,6.36,6.36,0,0,1-1.94,1.92c-.39.12-.36.12-.7,0C88.53,22.72,91.8,17.18,94.06,19.27Zm-.27.86a.61.61,0,0,0-.36-.07c-.38,0-.72.33-1.1,1.08a3.07,3.07,0,0,0-.34.77C92,22.12,93.79,20.25,93.79,20.13Z"/></svg>